<svg width="446" height="40" viewBox="0 0 446 40" fill="none" xmlns="http://www.w3.org/2000/svg">
<rect x="1" y="35" width="445" height="4" fill="#C4C4C4"/>
<rect x="0.998047" y="35.2437" width="349.357" height="4" transform="rotate(-0.0595261 0.998047 35.2437)" fill="#34547A"/>
<path d="M9.60156 12.0312H4.83594L3.76562 15H2.21875L6.5625 3.625H7.875L12.2266 15H10.6875L9.60156 12.0312ZM5.28906 10.7969H9.15625L7.21875 5.47656L5.28906 10.7969ZM13.1797 10.7031C13.1797 9.40625 13.487 8.36458 14.1016 7.57812C14.7161 6.78646 15.5208 6.39062 16.5156 6.39062C17.5052 6.39062 18.2891 6.72917 18.8672 7.40625V3H20.3125V15H18.9844L18.9141 14.0938C18.3359 14.8021 17.5312 15.1562 16.5 15.1562C15.5208 15.1562 14.7214 14.7552 14.1016 13.9531C13.487 13.151 13.1797 12.1042 13.1797 10.8125V10.7031ZM14.625 10.8672C14.625 11.8255 14.8229 12.5755 15.2188 13.1172C15.6146 13.6589 16.1615 13.9297 16.8594 13.9297C17.776 13.9297 18.4453 13.5182 18.8672 12.6953V8.8125C18.4349 8.01562 17.7708 7.61719 16.875 7.61719C16.1667 7.61719 15.6146 7.89062 15.2188 8.4375C14.8229 8.98438 14.625 9.79427 14.625 10.8672ZM22.1797 10.6953C22.1797 9.86719 22.3411 9.1224 22.6641 8.46094C22.9922 7.79948 23.4453 7.28906 24.0234 6.92969C24.6068 6.57031 25.2708 6.39062 26.0156 6.39062C27.1667 6.39062 28.0964 6.78906 28.8047 7.58594C29.5182 8.38281 29.875 9.44271 29.875 10.7656V10.8672C29.875 11.6901 29.7161 12.4297 29.3984 13.0859C29.0859 13.737 28.6354 14.2448 28.0469 14.6094C27.4635 14.974 26.7917 15.1562 26.0312 15.1562C24.8854 15.1562 23.9557 14.7578 23.2422 13.9609C22.5339 13.1641 22.1797 12.1094 22.1797 10.7969V10.6953ZM23.6328 10.8672C23.6328 11.8047 23.849 12.5573 24.2812 13.125C24.7188 13.6927 25.3021 13.9766 26.0312 13.9766C26.7656 13.9766 27.349 13.6901 27.7812 13.1172C28.2135 12.5391 28.4297 11.7318 28.4297 10.6953C28.4297 9.76823 28.2083 9.01823 27.7656 8.44531C27.3281 7.86719 26.7448 7.57812 26.0156 7.57812C25.3021 7.57812 24.7266 7.86198 24.2891 8.42969C23.8516 8.9974 23.6328 9.8099 23.6328 10.8672ZM38.8438 10.8672C38.8438 12.1589 38.5469 13.1979 37.9531 13.9844C37.3594 14.7656 36.5625 15.1562 35.5625 15.1562C34.4948 15.1562 33.6693 14.7786 33.0859 14.0234L33.0156 15H31.6875V3H33.1328V7.47656C33.7161 6.7526 34.5208 6.39062 35.5469 6.39062C36.5729 6.39062 37.3776 6.77865 37.9609 7.55469C38.5495 8.33073 38.8438 9.39323 38.8438 10.7422V10.8672ZM37.3984 10.7031C37.3984 9.71875 37.2083 8.95833 36.8281 8.42188C36.4479 7.88542 35.901 7.61719 35.1875 7.61719C34.2344 7.61719 33.5495 8.0599 33.1328 8.94531V12.6016C33.5755 13.487 34.2656 13.9297 35.2031 13.9297C35.8958 13.9297 36.4349 13.6615 36.8203 13.125C37.2057 12.5885 37.3984 11.7812 37.3984 10.7031ZM44.1797 15.1562C43.0339 15.1562 42.1016 14.7812 41.3828 14.0312C40.6641 13.276 40.3047 12.2682 40.3047 11.0078V10.7422C40.3047 9.90365 40.4635 9.15625 40.7812 8.5C41.1042 7.83854 41.5521 7.32292 42.125 6.95312C42.7031 6.57812 43.3281 6.39062 44 6.39062C45.099 6.39062 45.9531 6.7526 46.5625 7.47656C47.1719 8.20052 47.4766 9.23698 47.4766 10.5859V11.1875H41.75C41.7708 12.0208 42.013 12.6953 42.4766 13.2109C42.9453 13.7214 43.5391 13.9766 44.2578 13.9766C44.7682 13.9766 45.2005 13.8724 45.5547 13.6641C45.9089 13.4557 46.2188 13.1797 46.4844 12.8359L47.3672 13.5234C46.6589 14.612 45.5964 15.1562 44.1797 15.1562ZM44 7.57812C43.4167 7.57812 42.9271 7.79167 42.5312 8.21875C42.1354 8.64062 41.8906 9.23438 41.7969 10H46.0312V9.89062C45.9896 9.15625 45.7917 8.58854 45.4375 8.1875C45.0833 7.78125 44.6042 7.57812 44 7.57812ZM54.8516 10.5469V15H53.3516V3.625H57.5469C58.7917 3.625 59.7656 3.94271 60.4688 4.57812C61.1771 5.21354 61.5312 6.05469 61.5312 7.10156C61.5312 8.20573 61.1849 9.05729 60.4922 9.65625C59.8047 10.25 58.8177 10.5469 57.5312 10.5469H54.8516ZM54.8516 9.32031H57.5469C58.349 9.32031 58.9635 9.13281 59.3906 8.75781C59.8177 8.3776 60.0312 7.83073 60.0312 7.11719C60.0312 6.4401 59.8177 5.89844 59.3906 5.49219C58.9635 5.08594 58.3776 4.875 57.6328 4.85938H54.8516V9.32031ZM64.6641 7.57031C65.3047 6.78385 66.138 6.39062 67.1641 6.39062C68.9505 6.39062 69.8516 7.39844 69.8672 9.41406V15H68.4219V9.40625C68.4167 8.79688 68.276 8.34635 68 8.05469C67.7292 7.76302 67.3047 7.61719 66.7266 7.61719C66.2578 7.61719 65.8464 7.74219 65.4922 7.99219C65.138 8.24219 64.862 8.57031 64.6641 8.97656V15H63.2188V3H64.6641V7.57031ZM71.6484 10.6953C71.6484 9.86719 71.8099 9.1224 72.1328 8.46094C72.4609 7.79948 72.9141 7.28906 73.4922 6.92969C74.0755 6.57031 74.7396 6.39062 75.4844 6.39062C76.6354 6.39062 77.5651 6.78906 78.2734 7.58594C78.987 8.38281 79.3438 9.44271 79.3438 10.7656V10.8672C79.3438 11.6901 79.1849 12.4297 78.8672 13.0859C78.5547 13.737 78.1042 14.2448 77.5156 14.6094C76.9323 14.974 76.2604 15.1562 75.5 15.1562C74.3542 15.1562 73.4245 14.7578 72.7109 13.9609C72.0026 13.1641 71.6484 12.1094 71.6484 10.7969V10.6953ZM73.1016 10.8672C73.1016 11.8047 73.3177 12.5573 73.75 13.125C74.1875 13.6927 74.7708 13.9766 75.5 13.9766C76.2344 13.9766 76.8177 13.6901 77.25 13.1172C77.6823 12.5391 77.8984 11.7318 77.8984 10.6953C77.8984 9.76823 77.6771 9.01823 77.2344 8.44531C76.7969 7.86719 76.2135 7.57812 75.4844 7.57812C74.7708 7.57812 74.1953 7.86198 73.7578 8.42969C73.3203 8.9974 73.1016 9.8099 73.1016 10.8672ZM83.1172 4.5V6.54688H84.6953V7.66406H83.1172V12.9062C83.1172 13.2448 83.1875 13.5 83.3281 13.6719C83.4688 13.8385 83.7083 13.9219 84.0469 13.9219C84.2135 13.9219 84.4427 13.8906 84.7344 13.8281V15C84.3542 15.1042 83.9844 15.1562 83.625 15.1562C82.9792 15.1562 82.4922 14.9609 82.1641 14.5703C81.8359 14.1797 81.6719 13.625 81.6719 12.9062V7.66406H80.1328V6.54688H81.6719V4.5H83.1172ZM85.8516 10.6953C85.8516 9.86719 86.013 9.1224 86.3359 8.46094C86.6641 7.79948 87.1172 7.28906 87.6953 6.92969C88.2786 6.57031 88.9427 6.39062 89.6875 6.39062C90.8385 6.39062 91.7682 6.78906 92.4766 7.58594C93.1901 8.38281 93.5469 9.44271 93.5469 10.7656V10.8672C93.5469 11.6901 93.388 12.4297 93.0703 13.0859C92.7578 13.737 92.3073 14.2448 91.7188 14.6094C91.1354 14.974 90.4635 15.1562 89.7031 15.1562C88.5573 15.1562 87.6276 14.7578 86.9141 13.9609C86.2057 13.1641 85.8516 12.1094 85.8516 10.7969V10.6953ZM87.3047 10.8672C87.3047 11.8047 87.5208 12.5573 87.9531 13.125C88.3906 13.6927 88.974 13.9766 89.7031 13.9766C90.4375 13.9766 91.0208 13.6901 91.4531 13.1172C91.8854 12.5391 92.1016 11.7318 92.1016 10.6953C92.1016 9.76823 91.8802 9.01823 91.4375 8.44531C91 7.86719 90.4167 7.57812 89.6875 7.57812C88.974 7.57812 88.3984 7.86198 87.9609 8.42969C87.5234 8.9974 87.3047 9.8099 87.3047 10.8672ZM100.281 12.7578C100.281 12.3672 100.133 12.0651 99.8359 11.8516C99.5443 11.6328 99.0312 11.4453 98.2969 11.2891C97.5677 11.1328 96.987 10.9453 96.5547 10.7266C96.1276 10.5078 95.8099 10.2474 95.6016 9.94531C95.3984 9.64323 95.2969 9.28385 95.2969 8.86719C95.2969 8.17448 95.5885 7.58854 96.1719 7.10938C96.7604 6.63021 97.5104 6.39062 98.4219 6.39062C99.3802 6.39062 100.156 6.63802 100.75 7.13281C101.349 7.6276 101.648 8.26042 101.648 9.03125H100.195C100.195 8.63542 100.026 8.29427 99.6875 8.00781C99.3542 7.72135 98.9323 7.57812 98.4219 7.57812C97.8958 7.57812 97.4844 7.69271 97.1875 7.92188C96.8906 8.15104 96.7422 8.45052 96.7422 8.82031C96.7422 9.16927 96.8802 9.43229 97.1562 9.60938C97.4323 9.78646 97.9297 9.95573 98.6484 10.1172C99.3724 10.2786 99.9583 10.4714 100.406 10.6953C100.854 10.9193 101.185 11.1901 101.398 11.5078C101.617 11.8203 101.727 12.2031 101.727 12.6562C101.727 13.4115 101.424 14.0182 100.82 14.4766C100.216 14.9297 99.4323 15.1562 98.4688 15.1562C97.7917 15.1562 97.1927 15.0365 96.6719 14.7969C96.151 14.5573 95.7422 14.224 95.4453 13.7969C95.1536 13.3646 95.0078 12.8984 95.0078 12.3984H96.4531C96.4792 12.8828 96.6719 13.2682 97.0312 13.5547C97.3958 13.8359 97.875 13.9766 98.4688 13.9766C99.0156 13.9766 99.4531 13.8672 99.7812 13.6484C100.115 13.4245 100.281 13.1276 100.281 12.7578ZM105.055 7.57031C105.695 6.78385 106.529 6.39062 107.555 6.39062C109.341 6.39062 110.242 7.39844 110.258 9.41406V15H108.812V9.40625C108.807 8.79688 108.667 8.34635 108.391 8.05469C108.12 7.76302 107.695 7.61719 107.117 7.61719C106.648 7.61719 106.237 7.74219 105.883 7.99219C105.529 8.24219 105.253 8.57031 105.055 8.97656V15H103.609V3H105.055V7.57031ZM112.039 10.6953C112.039 9.86719 112.201 9.1224 112.523 8.46094C112.852 7.79948 113.305 7.28906 113.883 6.92969C114.466 6.57031 115.13 6.39062 115.875 6.39062C117.026 6.39062 117.956 6.78906 118.664 7.58594C119.378 8.38281 119.734 9.44271 119.734 10.7656V10.8672C119.734 11.6901 119.576 12.4297 119.258 13.0859C118.945 13.737 118.495 14.2448 117.906 14.6094C117.323 14.974 116.651 15.1562 115.891 15.1562C114.745 15.1562 113.815 14.7578 113.102 13.9609C112.393 13.1641 112.039 12.1094 112.039 10.7969V10.6953ZM113.492 10.8672C113.492 11.8047 113.708 12.5573 114.141 13.125C114.578 13.6927 115.161 13.9766 115.891 13.9766C116.625 13.9766 117.208 13.6901 117.641 13.1172C118.073 12.5391 118.289 11.7318 118.289 10.6953C118.289 9.76823 118.068 9.01823 117.625 8.44531C117.188 7.86719 116.604 7.57812 115.875 7.57812C115.161 7.57812 114.586 7.86198 114.148 8.42969C113.711 8.9974 113.492 9.8099 113.492 10.8672ZM128.688 10.8672C128.688 12.1536 128.393 13.1901 127.805 13.9766C127.216 14.763 126.419 15.1562 125.414 15.1562C124.388 15.1562 123.581 14.8307 122.992 14.1797V18.25H121.547V6.54688H122.867L122.938 7.48438C123.526 6.75521 124.344 6.39062 125.391 6.39062C126.406 6.39062 127.208 6.77344 127.797 7.53906C128.391 8.30469 128.688 9.36979 128.688 10.7344V10.8672ZM127.242 10.7031C127.242 9.75 127.039 8.9974 126.633 8.44531C126.227 7.89323 125.669 7.61719 124.961 7.61719C124.086 7.61719 123.43 8.00521 122.992 8.78125V12.8203C123.424 13.5911 124.086 13.9766 124.977 13.9766C125.669 13.9766 126.219 13.7031 126.625 13.1562C127.036 12.6042 127.242 11.7865 127.242 10.7031Z" fill="#727272"/>
</svg>
